<?xml version="1.0" encoding="utf-8"?>
<!-- Generator: Adobe Illustrator 28.0.0, SVG Export Plug-In . SVG Version: 6.00 Build 0)  -->
<svg version="1.1" id="Layer_1" xmlns="http://www.w3.org/2000/svg" xmlns:xlink="http://www.w3.org/1999/xlink" x="0px" y="0px"
	 viewBox="0 0 347.8 347.8" style="enable-background:new 0 0 347.8 347.8;" xml:space="preserve">
<style type="text/css">
	.st0{clip-path:url(#SVGID_00000174597930519157528870000014343115317053162649_);fill:#1D1D1B;}
	.st1{clip-path:url(#SVGID_00000174597930519157528870000014343115317053162649_);fill:none;stroke:#1D1D1B;stroke-width:3.933;}
	.st2{clip-path:url(#SVGID_00000174597930519157528870000014343115317053162649_);fill:#FFFFFF;}
	.st3{fill:#FFFFFF;}
	.st4{clip-path:url(#SVGID_00000014620989496180887540000000201864766901318302_);fill:#FFFFFF;}
</style>
<g>
	<defs>
		<rect id="SVGID_1_" width="347.8" height="347.8"/>
	</defs>
	<clipPath id="SVGID_00000039128330972747086920000003678043399266929579_">
		<use xlink:href="#SVGID_1_"  style="overflow:visible;"/>
	</clipPath>
	<path style="clip-path:url(#SVGID_00000039128330972747086920000003678043399266929579_);fill:#1D1D1B;" d="M173.9,345.9
		c95,0,172-77,172-172c0-95-77-172-172-172S2,79,2,173.9C2,268.9,79,345.9,173.9,345.9"/>
	
		<circle style="clip-path:url(#SVGID_00000039128330972747086920000003678043399266929579_);fill:none;stroke:#1D1D1B;stroke-width:3.933;" cx="173.9" cy="173.9" r="172"/>
	<path style="clip-path:url(#SVGID_00000039128330972747086920000003678043399266929579_);fill:#FFFFFF;" d="M249.2,271L232,228.5
		h-8.3L206.5,271l-17-42.5h-8.9l24.8,61.9h1.9l20.4-50.1l20.2,50.1h1.9l24.9-61.9H266L249.2,271z M147.9,264l9.2-22.3l9.9,22.3
		H147.9z M127.6,290.2h9.1l7.7-18.3h26.3l8.2,18.3h9l-27.6-62h-6.2L127.6,290.2z M100.8,237c1.9,0.6,3.3,1.8,4.3,3.3
		c1,1.6,1.5,3.3,1.5,5.3c0,2-0.5,3.7-1.4,5.3c-0.9,1.5-2.2,2.7-3.9,3.5c-1.7,0.8-4.7,1.1-9.2,1.1h-3.4V236h2.6
		C95.9,236,99,236.3,100.8,237 M88.9,290.2v-26.8h2.3c2.9,0,4.9,0.3,6.2,1c1.2,0.7,2.6,1.7,4.1,3.2c1.5,1.5,3.2,3.5,5,6l3,4.8
		l2.7,4.5l1.7,2.4c0.3,0.4,0.4,0.6,0.5,0.8l2.7,4.1h10.5l-3.3-4.4c-1.3-1.8-3-4.4-5.2-7.9c-3.4-5.6-6.1-9.5-7.9-11.7
		c-1.9-2.2-3.8-4-5.8-5.3c3.4-1.3,5.9-3.3,7.7-5.9c1.8-2.6,2.7-5.7,2.7-9.3c0-5.3-1.8-9.4-5.5-12.5s-8.6-4.6-14.8-4.6H80.1v61.6
		H88.9z"/>
	<path style="clip-path:url(#SVGID_00000039128330972747086920000003678043399266929579_);fill:#FFFFFF;" d="M268.3,183.1l9.2-22.3
		l9.9,22.3H268.3z M248,209.3h9.1l7.7-18.3h26.3l8.2,18.3h9l-27.6-62h-6.2L248,209.3z M221.2,156.1c1.9,0.6,3.3,1.8,4.3,3.3
		s1.5,3.3,1.5,5.3c0,2-0.5,3.7-1.4,5.3c-0.9,1.5-2.2,2.7-3.9,3.5c-1.7,0.8-4.7,1.1-9.2,1.1h-3.4v-19.5h2.6
		C216.3,155.1,219.4,155.4,221.2,156.1 M209.3,209.3v-26.8h2.3c2.9,0,4.9,0.3,6.2,1c1.2,0.7,2.6,1.7,4.1,3.2s3.2,3.5,5,6l3,4.8
		l2.7,4.5l1.7,2.4c0.3,0.4,0.4,0.6,0.5,0.8l2.7,4.1H248l-3.3-4.4c-1.3-1.8-3-4.4-5.2-7.9c-3.4-5.6-6.1-9.5-7.9-11.7
		c-1.9-2.2-3.8-4-5.8-5.3c3.4-1.3,5.9-3.2,7.7-5.9c1.8-2.6,2.7-5.7,2.7-9.3c0-5.3-1.8-9.4-5.5-12.5c-3.7-3.1-8.6-4.6-14.8-4.6h-15.4
		v61.6H209.3z M140.4,155.4h21.1v53.9h8.9v-53.9h21.5v-7.9h-51.5V155.4z M110.3,209.3h36.6v-8h-27.8v-53.6h-8.8V209.3z M89.3,182.6
		c0,4.9-0.4,8.3-1.1,10.3c-0.8,2-2,3.7-3.8,5.2c-3.3,2.7-7.6,4.1-12.8,4.1c-3.7,0-6.9-0.7-9.6-2.1c-2.7-1.4-4.7-3.2-6-5.4
		c-1.3-2.3-2-6.3-2-12.1v-35h-8.9v34.9c0,5,0.3,8.6,1,10.9c0.7,2.3,1.5,4.3,2.5,5.9c1,1.6,2.3,3.1,3.7,4.3
		c4.9,4.2,11.3,6.3,19.3,6.3c7.9,0,14.3-2.1,19.2-6.3c1.5-1.3,2.7-2.7,3.7-4.3c1-1.6,1.9-3.6,2.6-6c0.7-2.4,1-6,1-10.7v-35h-8.9
		V182.6z"/>
</g>
<path class="st3" d="M221.1,73.2L210.5,47h-5.1l-10.5,26.1L184.5,47H179l15.3,38.1h1.2L208,54.3l12.4,30.8h1.2L236.9,47h-5.4
	L221.1,73.2z M155.4,84.9h22v-4.8h-16.6V68.3h15.5v-4.9h-15.5V51.9h16.1V47h-21.5V84.9z M142.1,76.5L116.6,47h-4.4v37.9h5.1V55.8
	l25.3,29.2h4.7V47h-5.2V76.5z"/>
<g>
	<defs>
		<rect id="SVGID_00000126308631607232199840000000034129918147970469_" width="347.8" height="347.8"/>
	</defs>
	<clipPath id="SVGID_00000009564416170177908630000010735814275474597046_">
		<use xlink:href="#SVGID_00000126308631607232199840000000034129918147970469_"  style="overflow:visible;"/>
	</clipPath>
	<path style="clip-path:url(#SVGID_00000009564416170177908630000010735814275474597046_);fill:#FFFFFF;" d="M272.2,107.3h5.9v15
		h2.5v-15h6v-2.2h-14.3V107.3z M257,107.3h5.9v15h2.5v-15h6v-2.2H257V107.3z M248,115l2.6-6.2l2.8,6.2H248z M242.3,122.3h2.5
		l2.1-5.1h7.3l2.3,5.1h2.5l-7.7-17.2h-1.7L242.3,122.3z M232.6,112.2l-5.7-7h-2.3v17.1h2.5V109l5.3,6.6h0.5l5.3-6.6v13.3h2.5v-17.1
		h-2.3L232.6,112.2z M206.9,107.5c0.5,0.1,1.1,0.3,1.7,0.6s1.1,0.6,1.6,1.1c1.2,1.2,1.9,2.7,1.9,4.5c0,1.9-0.6,3.4-1.8,4.7
		c-0.4,0.4-0.8,0.7-1.2,1c-0.5,0.3-1,0.5-1.7,0.6s-1.6,0.3-2.9,0.3h-3.1v-12.7h3.1C205.5,107.3,206.4,107.4,206.9,107.5
		 M204.2,122.3c1.5,0,2.6,0,3.1-0.1s1.1-0.3,1.8-0.5c1.1-0.4,2.1-1,2.9-1.9c0.8-0.8,1.4-1.7,1.9-2.8c0.4-1,0.7-2.1,0.7-3.3
		c0-1.6-0.4-3.1-1.2-4.4c-0.8-1.4-1.9-2.4-3.2-3.1c-1.4-0.7-3.2-1.1-5.5-1.1h-5.8v17.1H204.2z M185.8,115l2.6-6.2l2.8,6.2H185.8z
		 M180.1,122.3h2.5l2.1-5.1h7.3l2.3,5.1h2.5l-7.7-17.2h-1.7L180.1,122.3z M169.5,122.3h10v-2.2h-7.5v-5.3h7v-2.2h-7v-5.2h7.3v-2.2
		h-9.7V122.3z M158.7,107.5c0.5,0.1,1.1,0.3,1.7,0.6s1.1,0.6,1.6,1.1c1.2,1.2,1.9,2.7,1.9,4.5c0,1.9-0.6,3.4-1.8,4.7
		c-0.4,0.4-0.8,0.7-1.2,1c-0.5,0.3-1,0.5-1.7,0.6s-1.6,0.3-2.9,0.3h-3.1v-12.7h3.1C157.3,107.3,158.2,107.4,158.7,107.5
		 M156.1,122.3c1.5,0,2.6,0,3.1-0.1s1.1-0.3,1.8-0.5c1.1-0.4,2.1-1,2.9-1.9c0.8-0.8,1.4-1.7,1.9-2.8c0.4-1,0.7-2.1,0.7-3.3
		c0-1.6-0.4-3.1-1.2-4.4c-0.8-1.4-1.9-2.4-3.2-3.1c-1.4-0.7-3.2-1.1-5.5-1.1h-5.8v17.1H156.1z M138.6,118.1c0,0.6-0.3,1.2-0.8,1.6
		c-0.5,0.4-1.2,0.6-1.9,0.6c-1.7,0-3.3-0.8-4.6-2.5v3.1c1.4,1,2.9,1.6,4.6,1.6c1.5,0,2.7-0.4,3.6-1.3c0.9-0.9,1.4-2,1.4-3.4
		c0-1.9-1-3.5-3.1-4.8l-1.9-1.1c-0.8-0.5-1.5-1-1.8-1.4c-0.4-0.4-0.6-0.9-0.6-1.4c0-0.6,0.3-1.1,0.8-1.4c0.5-0.4,1.2-0.6,2-0.6
		c1.4,0,2.8,0.6,4,1.8v-2.8c-1.2-0.8-2.5-1.2-3.9-1.2c-1.5,0-2.7,0.4-3.7,1.3c-0.9,0.8-1.4,1.9-1.4,3.3c0,0.9,0.2,1.7,0.7,2.4
		c0.5,0.7,1.3,1.4,2.5,2.1l1.9,1.1C137.9,116,138.6,117,138.6,118.1 M119.6,122.3h10v-2.2H122v-5.3h7v-2.2h-7v-5.2h7.3v-2.2h-9.7
		V122.3z M108.8,107.5c0.5,0.1,1.1,0.3,1.7,0.6c0.6,0.3,1.1,0.6,1.6,1.1c1.2,1.2,1.9,2.7,1.9,4.5c0,1.9-0.6,3.4-1.8,4.7
		c-0.4,0.4-0.8,0.7-1.2,1c-0.5,0.3-1,0.5-1.7,0.6s-1.6,0.3-2.9,0.3h-3.1v-12.7h3.1C107.4,107.3,108.3,107.4,108.8,107.5
		 M106.2,122.3c1.5,0,2.6,0,3.1-0.1s1.1-0.3,1.8-0.5c1.1-0.4,2.1-1,2.9-1.9c0.8-0.8,1.4-1.7,1.9-2.8c0.4-1,0.7-2.1,0.7-3.3
		c0-1.6-0.4-3.1-1.2-4.4c-0.8-1.4-1.9-2.4-3.2-3.1c-1.4-0.7-3.2-1.1-5.5-1.1h-5.8v17.1H106.2z M90,107.5c0.5,0.1,1.1,0.3,1.7,0.6
		c0.6,0.3,1.1,0.6,1.6,1.1c1.2,1.2,1.9,2.7,1.9,4.5c0,1.9-0.6,3.4-1.8,4.7c-0.4,0.4-0.8,0.7-1.2,1c-0.5,0.3-1,0.5-1.7,0.6
		s-1.6,0.3-2.9,0.3h-3.1v-12.7h3.1C88.6,107.3,89.4,107.4,90,107.5 M87.3,122.3c1.5,0,2.6,0,3.1-0.1s1.1-0.3,1.8-0.5
		c1.1-0.4,2.1-1,2.9-1.9c0.8-0.8,1.4-1.7,1.9-2.8c0.4-1,0.7-2.1,0.7-3.3c0-1.6-0.4-3.1-1.2-4.4c-0.8-1.4-1.9-2.4-3.2-3.1
		c-1.4-0.7-3.2-1.1-5.5-1.1h-5.8v17.1H87.3z M75.6,122.3h2.5v-17.1h-2.5V122.3z M63.8,122.3h2.5v-8h6.7v-2.2h-6.7v-4.8h6.7v-2.2
		h-9.1V122.3z"/>
</g>
</svg>
